<svg width="40" height="40" viewBox="0 0 40 40" fill="none" xmlns="http://www.w3.org/2000/svg">
<rect width="40" height="40" rx="3" fill="#60004E"/>
<path d="M34 24.8739C31.2523 26.0361 27.7581 27.2598 25.9725 26.9674C25.1336 26.8288 24.4178 26.267 23.8944 25.582L23.8714 25.5358C23.856 25.5127 23.8406 25.4973 23.8252 25.4742C23.2633 24.6122 22.9863 24.1889 21.9857 24.0196C21.4546 23.9272 20.8851 23.9426 20.2925 24.0273C17.7141 24.4198 13.4426 26.1361 10.5871 27.5831L9.64046 24.9047C12.8422 23.2499 17.6987 21.1642 20.354 21.5952C21.116 21.7183 21.7779 22.1955 22.2859 22.7958L22.3013 22.8266C22.3705 22.9036 22.4398 22.9883 22.5014 23.0806C23.0632 23.9426 23.3403 24.3659 24.3408 24.5353C24.8719 24.6276 25.4415 24.6122 26.0341 24.5276C27.3271 24.3275 29.6592 23.4808 31.6064 22.7189L33.9923 24.8739H34ZM28.2892 19.7249V18.3319C26.5113 18.9707 24.4794 19.6172 23.4019 19.7788C22.8092 19.8712 22.2397 19.8789 21.7086 19.7865C20.7081 19.6172 20.431 19.1939 19.8692 18.3319C19.8307 18.2703 19.7845 18.2164 19.746 18.1625L19.7075 18.101C19.1919 17.4621 18.5069 16.9542 17.7141 16.8233C15.2743 16.4231 10.9797 18.1548 7.81638 19.7172L8.76306 22.411C11.5723 21.0641 15.3128 19.6095 17.6526 19.2554C18.2452 19.1631 18.8147 19.1554 19.3458 19.2477C20.3463 19.4171 20.6234 19.8404 21.1853 20.7024C21.2237 20.764 21.2699 20.8178 21.3084 20.8717L21.3469 20.941C21.8626 21.5798 22.5476 22.0878 23.3403 22.2186C24.6795 22.4418 27.3194 21.7414 29.613 20.9256L28.2892 19.7326V19.7249ZM28.2892 12.5364C26.1111 13.4292 22.3705 14.753 20.762 14.9993C20.1693 15.0916 19.5998 15.0993 19.0687 15.007C18.0682 14.8376 17.7911 14.4143 17.2292 13.5523C17.2139 13.5292 17.1985 13.5138 17.1831 13.4907L17.16 13.4446C16.6366 12.7519 15.9131 12.19 15.0819 12.0592C12.8499 11.6897 9.05553 13.1136 6 14.5606L6.95437 17.262C9.64046 16.0306 12.9038 14.8145 15.0203 14.4913C15.613 14.3989 16.1825 14.3912 16.7136 14.4836C17.7141 14.6529 17.9912 15.0762 18.5531 15.9382C18.6146 16.0306 18.6839 16.1153 18.7532 16.1922L18.7686 16.223C19.2765 16.831 19.9384 17.3005 20.7004 17.4237C22.3167 17.693 25.7339 16.6463 28.2892 15.6381V12.521V12.5364Z" fill="white"/>
</svg>
