<svg width="40" height="40" viewBox="0 0 40 40" fill="none" xmlns="http://www.w3.org/2000/svg">
<rect width="40" height="40" rx="3" fill="#ABDBC6"/>
<path d="M24.9984 24.1166V18.9544L19.246 18.9689L19.2523 21.2261L22.4618 21.2181V26.3883C22.4618 27.8333 21.3081 28.8538 19.8814 28.8538C18.4546 28.8538 17.5367 27.8798 17.5367 26.5372V12.5995C17.5367 11.3002 18.6185 10.2829 20 10.2829C21.3815 10.2829 22.4633 11.257 22.4633 12.5995V16.0028H25V12.9199C24.9984 10.1612 22.8021 8 20 8C17.1979 8 15 10.1612 15 12.9199V26.5356C15 29.2944 17.0293 31.3333 19.833 31.3333C21.4767 31.3333 22.4555 30.2996 23.0362 28.9699L23.4686 31.1623H25C25 30.2524 25 26.5517 25 24.1166H24.9984Z" fill="black"/>
</svg>
