<svg width="40" height="40" viewBox="0 0 40 40" fill="none" xmlns="http://www.w3.org/2000/svg">
<rect width="40" height="40" rx="3" fill="#003B49"/>
<path fill-rule="evenodd" clip-rule="evenodd" d="M9.35061 16.1313V17.6213H9.56975V16.1313C9.56975 10.1275 13.4261 5.21891 19.9999 5.21891C26.5737 5.21891 30.4303 10.1275 30.4303 16.1313V17.6213H30.6494V16.1313C30.6494 9.99583 26.706 5 19.9999 5C13.2938 5 9.35061 9.99583 9.35061 16.1313ZM10.4474 16.1753V17.6213L10.6645 17.6225V16.1764C10.6645 10.7858 13.9505 6.27199 19.9992 6.27199C26.0479 6.27199 29.3339 10.7847 29.3339 16.1753V17.6213H29.5548V16.1753C29.5548 10.6532 26.1802 6.05171 20.001 6.05171C13.8218 6.05171 10.4474 10.6532 10.4474 16.1753ZM15.0478 25.1593H19.6493V24.9839C19.4302 24.9839 18.1593 24.3703 18.1593 23.2748V19.8564C19.1327 19.9607 19.5546 20.4235 21.2406 22.2731L21.2407 22.2732L21.2409 22.2734C21.6802 22.7553 22.2054 23.3315 22.8485 24.0199C23.7251 25.0277 24.6016 25.3343 25.6971 25.3343C26.1791 25.3343 26.7051 25.2466 27.0994 25.1591V24.9837C26.6176 25.0714 25.96 24.9837 24.3825 23.3622L20.9642 19.7685C22.4542 19.5056 24.1194 18.6728 24.1194 16.7447C24.1194 14.4658 22.2788 13.5016 20.1762 13.5016H15.0478V13.677C15.2669 13.677 16.4941 14.2904 16.4941 15.3861V23.2745C16.4941 24.37 15.2669 24.9837 15.0478 24.9837V25.1593ZM20.1762 13.6773H18.1592V19.6811H20.1762C21.447 19.6811 22.4111 18.3225 22.4111 16.701C22.4111 15.0796 21.447 13.6773 20.1762 13.6773ZM29.992 20.5139L28.984 19.5059L29.9911 18.4979L31 19.5059L29.992 20.5139ZM10.4474 22.8363V21.39H10.6663V22.8363C10.6663 28.2269 13.9523 32.7407 20.001 32.7407C26.0497 32.7407 29.3357 28.2269 29.3357 22.8374V21.3911H29.5548V22.8374C29.5548 28.3594 26.1802 32.961 20.001 32.961C13.8218 32.961 10.4474 28.3606 10.4474 22.8374V22.8363ZM9.35061 22.88V21.39H9.56975V22.88C9.56975 28.8841 13.4264 33.7924 19.9999 33.7924C26.5735 33.7924 30.4303 28.8841 30.4303 22.88V21.39H30.6494V22.88C30.6494 29.0155 26.7063 34.0116 19.9999 34.0116C13.2936 34.0116 9.35061 29.0155 9.35061 22.88ZM10.008 20.5139L9 19.5059L10.008 18.4979L11.0158 19.5059L10.008 20.5139Z" fill="white"/>
</svg>
