<svg width="40" height="40" viewBox="0 0 40 40" fill="none" xmlns="http://www.w3.org/2000/svg">
<rect width="40" height="40" rx="3" fill="#FF3A1E"/>
<path fill-rule="evenodd" clip-rule="evenodd" d="M10.5 11.5C10.5 11.2239 10.7239 11 11 11H23.545C23.8211 11 24.045 11.2239 24.045 11.5V13.335C24.045 13.6111 23.8211 13.835 23.545 13.835H13.335V26.165H25.08V21.4677C25.08 21.1916 25.3039 20.9677 25.58 20.9677H27.415C27.6911 20.9677 27.915 21.1916 27.915 21.4677V26.665V27.5327V28.5C27.915 28.7761 27.6911 29 27.415 29H11C10.7239 29 10.5 28.7761 10.5 28.5V27.5327V26.665V13.335V12.9177V11.5ZM19.7169 21.3723L26.2934 13.1238C26.4049 13.0124 26.5721 12.9845 26.6835 13.096L28.4391 14.7401C28.5227 14.7958 28.5227 14.9073 28.467 14.963L20.6922 24.8557C20.6086 24.9393 20.4971 24.995 20.3857 24.995H19.076C18.9645 24.995 18.853 24.9393 18.7694 24.8557L14.0042 18.7807C13.9485 18.725 13.9485 18.6135 14.0042 18.5578L15.7877 16.8858C15.8992 16.7744 16.0942 16.7744 16.2057 16.9137L19.7169 21.3723Z" fill="white"/>
</svg>
