<svg width="40" height="40" viewBox="0 0 40 40" fill="none" xmlns="http://www.w3.org/2000/svg">
<rect width="40" height="40" rx="3" fill="#38A596"/>
<path d="M12.9657 31.7907C12.9489 31.7907 12.9355 31.7907 12.9187 31.7873C12.7809 31.7638 12.6768 31.6463 12.6768 31.5054C12.6297 25.735 15.7847 21.8813 16.6348 20.9481C13.1068 17.6081 8.33235 17.457 8.28195 17.4537C8.14083 17.4503 8.02323 17.3463 8.00307 17.2086C7.98291 17.071 8.06355 16.9367 8.19795 16.8931C13.6747 15.067 18.3181 16.873 19.4706 17.3899C21.5571 13.0126 20.2299 8.42048 20.2165 8.37348C20.1762 8.23921 20.24 8.09487 20.3643 8.03109C20.4886 7.96731 20.6432 8.00423 20.7272 8.11836C24.1577 12.7575 23.8755 17.729 23.7344 18.981C28.5458 19.6121 32.5072 16.93 32.5475 16.9032C32.6617 16.8226 32.8197 16.8394 32.9171 16.9401C33.0145 17.0408 33.028 17.1952 32.9473 17.3094C29.5907 22.0022 24.7726 23.2711 23.5361 23.5262C24.4231 28.2929 28.1997 31.2267 28.2367 31.257C28.3476 31.3409 28.3812 31.4953 28.3173 31.6195C28.2535 31.7437 28.109 31.8041 27.9746 31.7605C22.4677 30.0216 19.773 25.8323 19.148 24.738C14.8842 27.0542 13.258 31.549 13.2412 31.596C13.1976 31.7168 13.0867 31.7907 12.9657 31.7907Z" fill="white"/>
</svg>
