<svg width="40" height="40" viewBox="0 0 40 40" fill="none" xmlns="http://www.w3.org/2000/svg">
<rect width="40" height="40" rx="3" fill="#9B2242"/>
<path fill-rule="evenodd" clip-rule="evenodd" d="M11 20C11 15.0294 15.0294 11 20 11C22.3869 11 24.6761 11.9482 26.364 13.636C28.0518 15.3239 29 17.6131 29 20C29 24.9706 24.9706 29 20 29C15.0294 29 11 24.9706 11 20ZM20.7565 24.2163C20.7565 25.5986 19.7532 27.1196 19.7532 27.1196C20.7839 26.7115 23.7129 25.0857 23.7129 22.3534C23.7129 20.4544 22.6986 19.2228 21.7702 18.0955C20.9868 17.1442 20.2645 16.2672 20.2645 15.126C20.2764 14.2704 20.5726 13.4431 21.1065 12.7744C21.1065 12.7744 16.9661 14.4034 16.4016 18.2293C16.1113 20.1728 17.1516 21.7663 17.1516 21.7663C17.3323 19.9518 18.5758 19.4083 18.6032 19.4776C18.6776 19.6605 18.8625 19.8918 19.0944 20.1819C19.742 20.9922 20.7565 22.2615 20.7565 24.2163Z" fill="white"/>
</svg>
