<svg width="149" height="24" viewBox="0 0 149 24" fill="none" xmlns="http://www.w3.org/2000/svg">
<path d="M33.9342 0.386133H30.4138V10.608H17.716V0.386133H14.2363V23.6139H17.716V13.0059H30.4138V23.6139H33.9342V0.386133Z" fill="white"/>
<path d="M3.91927 0.386133H0.439575V23.6139H3.91927V0.386133Z" fill="white"/>
<path d="M58.8617 12.4369V21.4395C57.8849 22.1101 56.2163 22.6384 54.3645 22.6384C48.911 22.6384 45.1871 17.8222 45.1871 11.7663C45.1871 6.03556 48.4633 1.34124 53.8965 1.34124C57.6611 1.34124 59.7977 3.08891 61.385 5.06012H61.5681V1.01609C60.4489 0.731583 57.3151 0 54.0389 0C46.1435 0 41.3411 5.75106 41.3411 12.0711C41.3411 18.9805 46.5505 24 54.1407 24C57.9053 24 60.8152 22.5572 62.4024 22.1101V12.4369H58.8617Z" fill="white"/>
<path d="M63.2572 2.0322C63.2572 1.25997 63.8676 0.63 64.6613 0.63C65.4549 0.63 66.0653 1.23965 66.0653 2.01188C66.0653 2.80443 65.4549 3.39376 64.6613 3.39376C63.888 3.41408 63.2572 2.80443 63.2572 2.0322ZM65.8008 2.01188C65.8008 1.32094 65.3328 0.853539 64.6613 0.853539C63.9897 0.853539 63.5217 1.34126 63.5217 2.0322C63.5217 2.72314 64.0304 3.19054 64.6613 3.19054C65.3124 3.17022 65.8008 2.70282 65.8008 2.01188ZM64.1729 1.32094H64.6613C64.9868 1.32094 65.1903 1.44287 65.1903 1.72738C65.1903 1.93059 65.0682 2.05252 64.9054 2.09317L65.2717 2.6825H64.9665L64.6409 2.15413H64.4985V2.6825H64.1932V1.32094H64.1729ZM64.6613 1.95091C64.8241 1.95091 64.9054 1.88995 64.9054 1.7477C64.9054 1.60544 64.8241 1.54448 64.6613 1.54448H64.4781V1.95091H64.6613Z" fill="white"/>
<path d="M74.9375 0.406435H76.0567V4.32854H82.7109V0.406435H83.8301V9.0635H82.7109V5.22269H76.0567V9.0635H74.9375V0.406435Z" fill="white"/>
<path d="M86.2313 4.79593V4.69432C86.2313 2.23539 88.4697 0.304819 91.929 0.304819C95.3884 0.304819 97.6268 2.23539 97.6268 4.674V4.77561C97.6268 7.21422 95.3884 9.18543 91.9697 9.18543C88.49 9.18543 86.2313 7.21422 86.2313 4.79593ZM96.4669 4.75528V4.65368C96.4669 2.72311 94.7983 1.15833 91.9494 1.15833C89.0598 1.15833 87.4319 2.64182 87.4319 4.69432V4.79593C87.4319 6.88907 89.304 8.31159 91.9901 8.31159C94.7372 8.29127 96.4669 6.84843 96.4669 4.75528Z" fill="white"/>
<path d="M98.6035 1.28027V0.406435H106.865V1.28027H103.304V9.0635H102.185V1.28027H98.6035Z" fill="white"/>
<path d="M108.982 0.406435H116.287V1.28027H110.121V4.2066H115.33V5.08044H110.121V8.20999H116.592V9.08383H109.002V0.406435H108.982Z" fill="white"/>
<path d="M118.81 0.406435H119.929V8.18967H125.525V9.0635H118.81V0.406435Z" fill="white"/>
<path d="M126.909 6.42168H128.008C128.191 7.47841 129.005 8.3116 131.325 8.3116C133.177 8.3116 134.214 7.68163 134.214 6.6249C134.214 5.60881 133.441 5.28366 131.081 4.99916C128.7 4.71465 127.357 4.14564 127.357 2.60119C127.357 1.25995 128.761 0.284508 131.04 0.284508C133.299 0.284508 134.743 1.07706 134.967 2.66215H133.93C133.665 1.54446 132.709 1.13802 131.04 1.13802C129.209 1.13802 128.415 1.68671 128.415 2.56055C128.415 3.33277 128.985 3.77985 131.406 4.06436C133.95 4.34886 135.313 4.8569 135.313 6.56393C135.313 8.06774 133.828 9.1448 131.325 9.1448C128.415 9.18544 127.133 7.96613 126.909 6.42168Z" fill="white"/>
<path d="M74.9375 14.9365H79.0684C81.0016 14.9365 82.6295 15.6478 82.6295 17.4767V17.5174C82.6295 19.0212 81.3475 19.7731 80.1469 19.9966L83.3214 23.5936H81.958L78.8446 20.0779H76.0567V23.5936H74.9375V14.9365ZM79.1294 19.2447C80.5742 19.2447 81.4899 18.6554 81.4899 17.558V17.5174C81.4899 16.2777 80.5132 15.8307 79.1294 15.8307H76.0567V19.265H79.1294V19.2447Z" fill="white"/>
<path d="M85.7836 14.9365H93.0889V15.8103H86.9231V18.7367H92.1325V19.6105H86.9231V22.7401H93.3941V23.6139H85.8039V14.9365H85.7836Z" fill="white"/>
<path d="M95.2866 20.9517H96.3855C96.5686 22.0085 97.3826 22.8417 99.7024 22.8417C101.554 22.8417 102.592 22.2117 102.592 21.155C102.592 20.1389 101.819 19.8137 99.4582 19.5292C97.0773 19.2447 95.7343 18.6757 95.7343 17.1313C95.7343 15.79 97.1384 14.8146 99.4175 14.8146C101.676 14.8146 103.121 15.6071 103.345 17.1922H102.307C102.043 16.0745 101.086 15.6681 99.4175 15.6681C97.5861 15.6681 96.7924 16.2168 96.7924 17.0906C96.7924 17.8628 97.3622 18.3099 99.7838 18.5944C102.327 18.8789 103.691 19.387 103.691 21.094C103.691 22.5978 102.205 23.6749 99.7024 23.6749C96.7924 23.7155 95.5105 22.4962 95.2866 20.9517Z" fill="white"/>
<path d="M105.888 19.326V19.2244C105.888 16.7655 108.127 14.8349 111.586 14.8349C115.046 14.8349 117.284 16.7655 117.284 19.2041V19.3057C117.284 21.7443 115.046 23.7155 111.627 23.7155C108.127 23.7155 105.888 21.7443 105.888 19.326ZM116.104 19.2854V19.1837C116.104 17.2532 114.435 15.6884 111.586 15.6884C108.697 15.6884 107.069 17.1719 107.069 19.2244V19.3057C107.069 21.3988 108.941 22.8213 111.627 22.8213C114.394 22.8213 116.104 21.3785 116.104 19.2854Z" fill="white"/>
<path d="M120.092 14.9365H124.223C126.156 14.9365 127.784 15.6478 127.784 17.4767V17.5174C127.784 19.0212 126.502 19.7731 125.302 19.9966L128.476 23.5936H127.113L123.999 20.0779H121.211V23.5936H120.092V14.9365ZM124.304 19.2447C125.749 19.2447 126.665 18.6554 126.665 17.558V17.5174C126.665 16.2777 125.688 15.8307 124.304 15.8307H121.232V19.265H124.304V19.2447Z" fill="white"/>
<path d="M133.421 15.8103H129.86V14.9365H138.121V15.8103H134.54V23.5936H133.421V15.8103Z" fill="white"/>
<path d="M139.688 20.9517H140.787C140.97 22.0085 141.784 22.8417 144.104 22.8417C145.956 22.8417 146.994 22.2117 146.994 21.155C146.994 20.1389 146.22 19.8137 143.86 19.5292C141.479 19.2447 140.136 18.6757 140.136 17.1313C140.136 15.79 141.54 14.8146 143.819 14.8146C146.078 14.8146 147.523 15.6071 147.747 17.1922H146.709C146.444 16.0745 145.488 15.6681 143.819 15.6681C141.988 15.6681 141.194 16.2168 141.194 17.0906C141.194 17.8628 141.764 18.3099 144.185 18.5944C146.729 18.8789 148.092 19.387 148.092 21.094C148.092 22.5978 146.607 23.6749 144.104 23.6749C141.194 23.7155 139.912 22.4962 139.688 20.9517Z" fill="white"/>
<path d="M146.119 7.88485C145.488 8.59611 144.552 9.16512 143.29 9.16512C141.499 9.16512 140.339 8.3116 140.339 6.84844C140.339 5.46656 141.418 4.71465 142.517 4.30822C141.947 3.80017 141.56 3.19052 141.56 2.37765C141.56 1.03641 142.659 0.284508 143.88 0.284508C145.203 0.284508 146.078 1.13802 146.078 2.29636C146.078 3.14988 145.406 4.00339 144.084 4.51144L146.2 6.64522L147.563 4.59272H148.499L146.77 7.21423L148.601 9.06351H147.319L146.119 7.88485ZM143.31 8.3116C144.328 8.3116 145.101 7.90517 145.61 7.35648L143.107 4.79594C142.069 5.18205 141.316 5.75106 141.316 6.76715C141.316 7.72227 142.028 8.3116 143.31 8.3116ZM143.494 4.00339C144.715 3.47502 145.162 2.94666 145.162 2.25572C145.162 1.5851 144.694 1.07706 143.84 1.07706C143.066 1.07706 142.456 1.50381 142.456 2.37765C142.456 3.02795 142.903 3.53599 143.494 4.00339Z" fill="white"/>
</svg>
