<svg width="8" height="18" viewBox="0 0 8 18" fill="none" xmlns="http://www.w3.org/2000/svg">
<path d="M7.31641 0L7.32812 18H6.58105L6.57227 5.7832C6.27652 6.55914 5.86297 7.29418 5.2832 7.9209L5.29004 16.1484H4.54297L4.53613 8.59375C3.49332 9.37148 2.07037 9.85547 0.132812 9.85547H0V9.1084H0.132812C0.56092 9.1084 1.04523 8.89962 1.55176 8.48242C2.05678 8.06642 2.57381 7.45142 3.06543 6.66309C3.94724 5.2487 4.5301 3.59111 4.53027 2.5459V2.41211H5.27832L5.28223 6.70605C6.33961 5.03187 6.56833 2.65264 6.56836 0.133789V0H7.31641ZM4.53418 5.43457C3.98131 6.70667 3.16101 8.01019 2.22656 8.86816C3.1958 8.62127 3.94942 8.19236 4.53516 7.62695L4.53418 5.43457Z" fill="white"/>
</svg>
