<svg width="46" height="46" viewBox="0 0 46 46" fill="none" xmlns="http://www.w3.org/2000/svg">
<path d="M17.3443 0.799506C17.5238 0.468363 18.0074 0.472417 18.1786 0.8079C19.3376 3.07867 22.7391 9.5183 25.2999 12.0726C27.6952 14.4619 32.4124 16.527 34.5036 17.368C34.885 17.5214 34.9077 18.0728 34.5392 18.255C32.462 19.2825 27.6895 21.7803 25.2999 24.1499C22.7844 26.6445 19.4082 32.5655 18.2135 34.7302C18.0299 35.0628 17.5396 35.0514 17.3714 34.7107C16.2988 32.5382 13.2464 26.6786 10.3498 24.1499C7.56063 21.7149 2.86123 19.2142 0.901096 18.2186C0.549541 18.04 0.560266 17.5211 0.917808 17.3548C2.97927 16.3962 7.9818 13.9261 10.3498 11.5C12.8063 8.98322 16.1674 2.97092 17.3443 0.799506Z" fill="#1F4456"/>
<path d="M35.1879 26.8053C35.3512 26.3828 36.0038 26.3987 36.1489 26.8278C36.7143 28.4993 37.7601 31.1949 38.9678 32.3995C40.1703 33.5989 42.8629 34.6575 44.5457 35.236C44.9769 35.3842 44.9854 36.0465 44.5581 36.2057C42.91 36.8198 40.2881 37.9218 39.1005 39.0995C37.9185 40.2716 36.8236 42.8782 36.2107 44.5311C36.0514 44.9607 35.3758 44.953 35.2229 44.5211C34.64 42.8741 33.5619 40.288 32.2005 39.0995C30.8314 37.9042 28.3216 36.8112 26.7642 36.2031C26.3458 36.0397 26.355 35.3943 26.778 35.2434C28.4032 34.6639 31.0325 33.5961 32.2005 32.3995C33.3722 31.1991 34.5412 28.4782 35.1879 26.8053Z" fill="#1F4456"/>
</svg>
