<svg width="40" height="40" viewBox="0 0 40 40" fill="none" xmlns="http://www.w3.org/2000/svg">
<rect width="40" height="40" rx="3" fill="black"/>
<path d="M26.6105 29.1578C25.9476 29.1326 25.3926 28.8166 24.871 28.4547C22.2079 26.6092 20.1945 24.1497 18.487 21.4068C18.2641 21.0463 18.337 20.9617 18.7478 20.8505C22.2282 19.91 24.6452 16.8778 24.7428 13.3843C24.7996 11.4009 23.739 9.8225 21.9864 9.28104C19.2664 8.43992 17.1088 9.50504 16.0803 12.2316C15.3446 14.1794 15.1158 16.231 14.9556 18.293C14.9337 18.5808 14.9585 18.8271 14.6657 19.0674C13.8382 19.7498 13.7843 20.6458 14.4923 21.4661C14.7385 21.7524 14.8157 22.0283 14.8128 22.3888C14.7968 24.1601 14.7239 25.9343 14.9556 27.6966C15.0867 28.692 15.1989 29.7008 15.7874 30.5567C15.9725 30.8252 16.2391 31.0922 16.5756 30.9691C16.9544 30.8312 16.8524 30.4499 16.8073 30.1354C16.4853 27.9191 16.4256 25.6895 16.4824 23.4539C16.4882 23.2433 16.3498 22.9318 16.6091 22.8353C16.9136 22.7226 17.0782 23.0074 17.2487 23.2255C18.404 24.703 19.5389 26.2013 20.8748 27.5156C22.0461 28.6683 23.2874 29.7542 24.9453 30.0998C25.5455 30.2244 26.2157 30.4722 26.7722 29.9084C26.7722 29.9084 27.3797 29.2468 26.6105 29.1578ZM17.7906 19.8818C16.7053 19.8462 16.5785 19.6207 16.6077 17.7412C16.6616 16.5826 16.7198 15.0843 17.2691 13.6691C17.9655 11.8697 19.434 11.036 21.3031 11.346C22.5721 11.5567 23.3777 12.5432 23.3486 13.853C23.2918 16.363 21.4372 18.9131 19.1193 19.6993C18.6808 19.8492 18.2292 19.8951 17.7906 19.8803V19.8818Z" fill="white"/>
</svg>
