<svg width="40" height="40" viewBox="0 0 40 40" fill="none" xmlns="http://www.w3.org/2000/svg">
<circle cx="20" cy="20" r="20" fill="#2C5F6E"/>
<path d="M28.6434 28.8327L28.6433 28.8356L28.6701 28.833C28.6722 28.8362 28.6761 28.8402 28.6767 28.8438C28.7905 28.8502 28.7571 28.8866 28.8406 28.9088C28.6085 28.8993 28.9064 28.9361 28.7386 28.969C28.7838 28.9777 28.8253 28.9803 28.8631 28.9803C28.8235 28.987 28.7838 28.9965 28.7424 29.0049L28.7499 29.0012C28.7612 28.9936 28.7632 28.9916 28.7517 28.9936C28.7481 28.9842 28.7406 28.9803 28.7386 28.9747C28.6995 28.9268 28.5953 28.9023 28.6429 28.8523L28.635 28.8471C28.6273 28.846 28.6192 28.8455 28.6107 28.8452L28.5846 28.8445C28.5969 28.8421 28.6091 28.84 28.6211 28.8383L28.618 28.8365L28.6434 28.8327Z" fill="white"/>
<path d="M10.0411 24.7184C9.50281 25.1122 9.28741 25.8573 9.25138 25.9947L9.24583 26.0166L9.2929 26.0311C9.70628 25.0349 10.8258 24.8866 11.4559 24.8866C11.5574 24.8866 11.6464 24.8902 11.7179 24.8954C11.7489 24.9188 11.7822 24.94 11.8226 24.9629C11.8045 24.9597 11.7793 24.9809 11.8302 25.0085C11.8489 24.9435 11.9318 25.038 11.9973 25.0353C11.9989 25.0352 12.0005 25.0351 12.0021 25.0349C12.0002 25.0349 11.9986 25.035 11.9973 25.0353C11.9798 25.0387 12.0104 25.0635 12.037 25.0893C12.0651 25.1156 12.0883 25.1433 12.0484 25.139C12.0893 25.1667 12.067 25.122 12.106 25.1342C12.177 25.2295 12.3079 25.3014 12.3921 25.423C12.3859 25.4301 12.3607 25.4197 12.3698 25.4516C12.397 25.4628 12.4237 25.475 12.4512 25.4873C12.4642 25.514 12.4256 25.5369 12.4793 25.5638C12.4688 25.5613 12.4537 25.5581 12.4616 25.5758C12.5585 25.6819 12.6189 25.8166 12.6678 25.9527C12.7174 26.0889 12.756 26.2269 12.8189 26.3639C12.7955 26.3277 12.7984 26.3546 12.8022 26.3836C12.7951 26.3649 12.7813 26.3874 12.7683 26.3855C12.786 26.4231 12.8017 26.4614 12.817 26.5005C12.7869 26.5244 12.8237 26.6295 12.7922 26.6431L12.7964 26.6051C12.777 26.6335 12.7519 26.61 12.7263 26.5861L12.7246 26.5845C12.7269 26.6229 12.7304 26.6614 12.7304 26.7003C12.7304 27.2772 12.4798 27.7951 12.0817 28.158C12.0883 28.1554 12.0917 28.1485 12.0988 28.1469L12.105 28.1554C12.0841 28.1741 12.0641 28.1806 12.0817 28.158C12.0631 28.176 12.0432 28.1928 12.0236 28.2096C12.0595 28.1943 12.0807 28.2368 12.0822 28.2821L12.1104 28.2558L12.1042 28.2575L12.1183 28.2475C12.1062 28.2631 12.1 28.2774 12.0897 28.3031L12.1168 28.3119C12.1051 28.3131 12.0934 28.3139 12.0817 28.3145L12.0578 28.316C12.0561 28.3162 12.0546 28.3162 12.0533 28.3162L12.0477 28.3162L12.0448 28.3197L12.0461 28.3131C12.04 28.3154 12.0326 28.3184 12.0236 28.3226C12.0308 28.3035 12.0893 28.2359 12.0469 28.2481C11.9926 28.2802 12.0117 28.2859 11.994 28.313C11.9989 28.2821 11.9288 28.3195 11.9059 28.3008C11.8573 28.3355 11.8083 28.3683 11.7564 28.3992L11.7555 28.4004L11.7271 28.4191C11.7297 28.4165 11.7332 28.4141 11.7359 28.4115C11.6856 28.4408 11.6337 28.4676 11.5798 28.4932C11.5855 28.495 11.5897 28.4969 11.5855 28.5034L11.5526 28.5137C11.5322 28.5469 11.625 28.5137 11.5893 28.5408C11.6384 28.5347 11.6987 28.5317 11.7516 28.4874L11.7475 28.4567C11.7472 28.4667 11.7169 28.492 11.6974 28.4932C11.7288 28.4912 11.7655 28.4088 11.8112 28.4256L11.7822 28.4676C11.81 28.4614 11.8438 28.4569 11.876 28.4466C11.8681 28.4285 11.8963 28.4178 11.9247 28.4031C11.9234 28.4042 11.9209 28.405 11.9199 28.4066C11.9276 28.4125 11.9293 28.4177 11.9269 28.4224L11.9451 28.408C11.9402 28.4481 11.9323 28.4134 11.916 28.466C11.9233 28.4114 11.7932 28.5424 11.8086 28.4872C11.7905 28.5369 11.7521 28.5369 11.7179 28.592C11.7146 28.5824 11.7278 28.5652 11.6837 28.5935C11.6802 28.592 11.6736 28.5908 11.6689 28.5908C11.6666 28.5897 11.6654 28.5897 11.6689 28.5889C11.6784 28.5805 11.685 28.571 11.6856 28.5645C11.6527 28.5561 11.5802 28.592 11.5502 28.5908C11.5241 28.6065 11.5659 28.5954 11.5554 28.6126H11.5554C11.5401 28.6126 11.526 28.6126 11.5101 28.6114C11.516 28.6332 11.4497 28.6752 11.5218 28.6614C11.5022 28.6698 11.4811 28.6771 11.4612 28.6859C11.4298 28.7099 11.3808 28.7317 11.346 28.7324C11.3179 28.7454 11.2641 28.7309 11.2951 28.7393C11.2608 28.7438 11.2265 28.7484 11.1926 28.7515L11.1932 28.7569C11.0941 28.782 10.985 28.7599 10.8745 28.8065C10.8398 28.8049 10.8049 28.7992 10.7483 28.8065L10.7378 28.8263C10.6946 28.821 10.6049 28.8431 10.5873 28.8225C10.5625 28.8461 10.5077 28.8461 10.4512 28.837C10.3945 28.8271 10.335 28.8095 10.2955 28.8065L10.2979 28.782C10.2459 28.7729 10.1978 28.7553 10.1369 28.7278L10.1474 28.708C10.0988 28.6759 10.0049 28.6828 9.92257 28.6481C9.92492 28.6576 9.94736 28.6637 9.96403 28.6649C9.90493 28.6698 9.8554 28.6385 9.81067 28.6065C9.76538 28.5737 9.72489 28.5393 9.67433 28.5317C9.65732 28.5137 9.64066 28.5073 9.624 28.5034C9.62594 28.5042 9.62692 28.5065 9.62766 28.5073C9.62594 28.5065 9.62302 28.5042 9.61976 28.5027L9.61938 28.5026C9.60811 28.5007 9.59678 28.4988 9.58488 28.4958C9.59594 28.4958 9.60676 28.4969 9.61449 28.4996C9.5992 28.4904 9.57675 28.4736 9.55683 28.4538L9.53438 28.4676L9.52911 28.463C9.50162 28.4553 9.51771 28.4416 9.53924 28.4347C9.53008 28.4248 9.52292 28.4134 9.51771 28.4042C9.47723 28.4225 9.46772 28.3523 9.41916 28.3675C9.41644 28.3427 9.33422 28.2801 9.33785 28.2383C9.31225 28.2228 9.28684 28.2068 9.27623 28.1798L9.24583 28.1928C9.23964 28.1675 9.23346 28.1432 9.22825 28.1187C9.18776 28.1035 9.16823 28.0981 9.17866 28.1424C9.13972 28.0493 9.13491 28.0763 9.10977 27.9928L9.09734 28.0081C9.07873 27.9851 9.07157 27.9347 9.04815 27.9302C9.01443 27.9157 8.96489 27.8512 8.9153 27.7729C8.86577 27.6943 8.81715 27.6024 8.76779 27.532C8.83342 27.5395 8.71299 27.4711 8.7525 27.4479C8.73681 27.4442 8.72055 27.4251 8.71917 27.4547C8.70159 27.3705 8.65527 27.3396 8.67445 27.272C8.65819 27.2663 8.66054 27.295 8.65006 27.2889L8.6501 27.2886C8.65111 27.2812 8.65416 27.2592 8.64387 27.2527C8.63339 27.2463 8.63574 27.2679 8.63437 27.2833C8.61192 27.1965 8.65332 27.1781 8.69014 27.1627C8.66208 27.1251 8.66054 27.1026 8.68006 27.0679C8.66437 27.0553 8.64679 27.0331 8.65195 27.0856C8.6425 27.0575 8.60493 26.9058 8.63763 26.8998C8.62916 26.8913 8.63145 26.8586 8.63534 26.8505C8.62875 26.7836 8.62526 26.7778 8.62778 26.7122L8.63242 26.7299C8.67096 26.7036 8.64095 26.6755 8.64771 26.6229L8.64387 26.6238C8.62257 26.5013 8.65819 26.5732 8.6386 26.4511L8.66145 26.4605C8.71391 26.4559 8.64479 26.3521 8.67966 26.2868L8.68819 26.3132C8.71202 26.2803 8.64193 26.1948 8.64679 26.1549C8.64445 26.1452 8.63574 26.1658 8.62973 26.1771C8.62778 26.0687 8.66243 26.1706 8.69152 26.1012C8.67966 26.0823 8.64445 26.1057 8.65722 26.0552C8.6516 26.025 8.75829 25.9331 8.75731 25.8571C8.76292 25.8764 8.76871 25.8951 8.79161 25.8674C8.81715 25.8214 8.81114 25.714 8.87195 25.6909C8.87195 25.6829 8.87058 25.6786 8.86829 25.6774C8.89732 25.6459 8.95246 25.5716 8.98545 25.5642C8.961 25.5262 9.00675 25.4777 9.05205 25.4375C9.09677 25.3979 9.14052 25.3657 9.11149 25.3417C9.14052 25.3108 9.17053 25.2802 9.20151 25.2507L9.19337 25.2478C9.24711 25.1871 9.28219 25.181 9.31472 25.1753L9.31592 25.1751C9.32582 25.1596 9.31151 25.1629 9.30779 25.161C9.38681 25.0724 9.40015 25.0671 9.50202 25.0394L9.49584 25.0133C9.52545 25.0095 9.61878 24.8837 9.73824 24.8561C9.73532 24.8536 9.73205 24.8509 9.72157 24.8522C9.78685 24.8339 9.85059 24.786 9.91152 24.7513C9.95203 24.7287 9.99028 24.7125 10.0225 24.7148C10.029 24.7152 10.0352 24.7164 10.0411 24.7184Z" fill="white"/>
<path d="M28.1915 24.7374C27.6199 25.1742 27.4216 26.0048 27.4193 26.0167L27.4665 26.0312C27.8794 25.0348 28.9986 24.8866 29.629 24.8866C29.7266 24.8866 29.8118 24.8902 29.8815 24.895C29.8892 24.9024 29.8985 24.91 29.9063 24.9175C29.8055 24.8709 29.9016 24.9587 29.8552 24.9499C29.8892 24.9744 29.9644 24.9812 29.921 24.9512L29.9125 24.9503C29.9187 24.8996 30.038 25.0066 30.0519 24.9803C30.2331 25.1033 30.4105 25.231 30.5437 25.3915L30.4996 25.3953C30.5158 25.414 30.5321 25.4318 30.5468 25.4497C30.5646 25.459 30.5856 25.4529 30.5522 25.413C30.5856 25.422 30.5902 25.4919 30.5848 25.4976C30.656 25.5703 30.5964 25.4413 30.6149 25.4657L30.6382 25.5018L30.6297 25.4961C30.6358 25.5327 30.6242 25.5426 30.6598 25.5932C30.6862 25.622 30.6893 25.5989 30.6986 25.6111C30.7009 25.6098 30.7055 25.6134 30.7125 25.6308C30.728 25.6562 30.7458 25.6819 30.7598 25.7082L30.718 25.69C30.7249 25.7317 30.759 25.7636 30.711 25.7426C30.7474 25.7571 30.79 25.8298 30.8218 25.9041C30.8535 25.9781 30.8744 26.0537 30.8876 26.0687C30.8846 26.1264 30.8983 26.1767 30.9154 26.2394L30.9171 26.2456C30.9077 26.2301 30.8744 26.2283 30.8891 26.2832C30.95 26.2495 30.9401 26.3731 30.9877 26.4183C30.989 26.4191 30.9905 26.4203 30.9921 26.4221C30.9906 26.4209 30.9891 26.4196 30.9877 26.4183C30.975 26.4107 30.9782 26.4483 30.9782 26.4836C30.979 26.5225 30.9759 26.5582 30.9503 26.5273C30.9596 26.5752 30.9759 26.5277 30.9952 26.5643C30.9767 26.6811 31.0169 26.8229 30.9906 26.9675C30.9821 26.9692 30.9704 26.9435 30.9534 26.9721C30.9643 26.9994 30.9751 27.0266 30.9852 27.0543C30.9759 27.082 30.931 27.0717 30.9503 27.1283C30.9449 27.1196 30.9364 27.1064 30.9294 27.1251C30.9216 27.2669 30.8682 27.4039 30.8055 27.5339C30.742 27.6654 30.6699 27.789 30.6173 27.9302C30.6255 27.8903 30.6109 27.908 30.5926 27.93L30.5902 27.9329C30.5987 27.9149 30.5731 27.9207 30.5662 27.9103C30.5499 27.9485 30.5352 27.9875 30.5166 28.0248C30.4786 28.0218 30.4291 28.1214 30.3973 28.1092L30.4267 28.0852C30.3934 28.0912 30.3919 28.0569 30.3911 28.021C30.3656 28.0493 30.3408 28.0783 30.3121 28.1065C29.8567 28.5553 29.2386 28.7431 28.6454 28.6736C28.6632 28.6859 28.698 28.6931 28.7306 28.682C28.7739 28.6996 28.7413 28.7614 28.6957 28.7935L28.6956 28.7928C28.695 28.7846 28.6943 28.777 28.6484 28.7607C28.6671 28.753 28.7577 28.7454 28.7189 28.7248C28.657 28.7099 28.6671 28.7271 28.6353 28.7343C28.6608 28.7148 28.5834 28.6931 28.5803 28.6637C28.5214 28.6546 28.4633 28.6431 28.4045 28.6294L28.3689 28.6225L28.3805 28.6236C28.3247 28.6095 28.2682 28.5927 28.2132 28.5729C28.2155 28.5775 28.217 28.5825 28.2093 28.5844L28.1776 28.5683C28.1396 28.5786 28.2303 28.6187 28.1845 28.6133C28.2248 28.6431 28.2689 28.6828 28.3379 28.6882L28.3572 28.664C28.3499 28.6704 28.3093 28.668 28.2953 28.6546C28.3185 28.6752 28.4045 28.6423 28.4254 28.6866L28.3727 28.6958C28.4168 28.7221 28.4703 28.7664 28.5323 28.7676C28.499 28.7916 28.5199 28.7614 28.4695 28.7882C28.5152 28.7542 28.3146 28.7561 28.3844 28.7248L28.363 28.7336C28.3297 28.7434 28.3057 28.7312 28.2652 28.7342L28.2387 28.7381C28.2434 28.7297 28.2643 28.7271 28.2139 28.7156C28.2132 28.7119 28.2086 28.7072 28.2062 28.7042L28.2016 28.7034H28.2054C28.2031 28.7003 28.2031 28.7011 28.2062 28.7042C28.2194 28.7042 28.2309 28.7003 28.2372 28.698C28.2186 28.6675 28.1426 28.6423 28.1217 28.6209C28.0924 28.6141 28.1295 28.637 28.1094 28.6397C28.0994 28.6294 28.0893 28.6187 28.0784 28.6076C28.066 28.6274 27.9894 28.6103 28.0513 28.6508C28.0304 28.6423 28.0111 28.634 27.9909 28.6256C27.9498 28.6209 27.8995 28.6019 27.8755 28.5786C27.8461 28.5683 27.8189 28.5202 27.8337 28.5485L27.7931 28.517L27.7531 28.4847L27.7492 28.4897C27.6617 28.4378 27.6005 28.3458 27.4882 28.3034C27.4665 28.2775 27.4441 28.2492 27.3999 28.2153L27.3774 28.2218C27.3512 28.1875 27.2721 28.1413 27.2752 28.1142C27.2396 28.1142 27.2016 28.0745 27.1684 28.0287C27.1343 27.9813 27.1056 27.929 27.0793 27.9001L27.0986 27.8828C27.0684 27.8409 27.0475 27.7951 27.0235 27.7329L27.0452 27.7264C27.0336 27.6699 26.9623 27.6091 26.9298 27.5274C26.9275 27.5319 26.9283 27.5386 26.9322 27.5461C26.9027 27.511 26.8872 27.4659 26.8803 27.4203C26.8717 27.3659 26.867 27.3129 26.8369 27.2724C26.8384 27.2476 26.8306 27.2322 26.8214 27.2171C26.8222 27.219 26.8222 27.2213 26.8222 27.2228C26.8214 27.2211 26.8208 27.2179 26.82 27.2145L26.8198 27.2133L26.8189 27.2121C26.8123 27.2032 26.8063 27.1951 26.7996 27.1843C26.8074 27.1927 26.8136 27.2011 26.8175 27.2087C26.8136 27.1907 26.8097 27.1627 26.8097 27.1354L26.7842 27.1293L26.7834 27.1228C26.7703 27.0984 26.7904 27.0997 26.8113 27.1097C26.8121 27.0965 26.8152 27.083 26.8183 27.073C26.7765 27.0585 26.8198 27.0023 26.7757 26.9782C26.7901 26.9594 26.7777 26.8578 26.8094 26.8301C26.8026 26.8014 26.7968 26.7719 26.8082 26.7459L26.7779 26.7347C26.7912 26.7121 26.8043 26.6906 26.8183 26.6694C26.8004 26.6305 26.7912 26.6132 26.7664 26.6521C26.8051 26.5582 26.7826 26.5752 26.8245 26.4981L26.8051 26.5C26.8082 26.472 26.8407 26.4296 26.8276 26.4109C26.8121 26.3765 26.8237 26.2973 26.8454 26.2071C26.8663 26.1176 26.898 26.0179 26.9127 25.934C26.9545 25.9848 26.9174 25.8523 26.9631 25.8636C26.9545 25.8494 26.9577 25.8251 26.9352 25.8449C26.9832 25.7726 26.9716 25.7186 27.0352 25.6844C27.0274 25.6693 27.008 25.6909 27.0057 25.6796C27.0112 25.6749 27.0289 25.661 27.0266 25.6497C27.0235 25.6384 27.0104 25.6552 26.998 25.6642C27.0445 25.5876 27.0871 25.6031 27.1235 25.6186C27.1311 25.5722 27.1451 25.5549 27.1854 25.5436C27.1823 25.5247 27.1862 25.4957 27.1513 25.5379C27.1661 25.5107 27.2474 25.3774 27.2752 25.3963C27.2752 25.384 27.3008 25.3623 27.3093 25.3587C27.352 25.3069 27.355 25.3014 27.4023 25.2554L27.3937 25.2728C27.4394 25.2803 27.4387 25.2394 27.4813 25.2066L27.4766 25.2053C27.5509 25.1033 27.5231 25.1793 27.5974 25.0799L27.6083 25.1014C27.647 25.1358 27.6741 25.0137 27.7454 24.9917L27.7314 25.016C27.7717 25.0104 27.7841 24.9005 27.8166 24.8747C27.8228 24.8667 27.8004 24.8757 27.788 24.879C27.8646 24.8015 27.8158 24.8979 27.8871 24.8686C27.8918 24.8471 27.8499 24.8391 27.8948 24.8124C27.9127 24.787 28.0551 24.7954 28.1086 24.7419C28.0986 24.7589 28.0893 24.7766 28.1257 24.7729C28.1443 24.7673 28.1675 24.7522 28.1915 24.7374Z" fill="white"/>
<path d="M12.2032 28.4261C12.2979 28.2927 12.0617 28.4661 12.231 28.3162C12.1541 28.3616 12.1579 28.3053 12.0546 28.3997C12.0419 28.4841 12.1428 28.4217 12.2055 28.4326C12.1239 28.5014 12.0801 28.5424 12.0466 28.5794C12.0891 28.5504 12.1322 28.5206 12.174 28.4894L12.2357 28.4416L12.2334 28.4488C12.2527 28.4124 12.2763 28.3817 12.3003 28.3481C12.2725 28.3743 12.2414 28.4016 12.2032 28.4261Z" fill="white"/>
<path d="M20.9389 28.234C20.9335 28.2737 20.9258 28.2385 20.9087 28.2924L20.9077 28.2824C20.8956 28.2611 20.7994 28.3523 20.8006 28.3207L20.8038 28.308L20.7938 28.3311C20.7778 28.3576 20.7536 28.3663 20.7297 28.3935L20.7119 28.4179C20.7081 28.408 20.7212 28.392 20.6763 28.4191C20.6733 28.4179 20.667 28.4171 20.6624 28.4164C20.6596 28.4163 20.6603 28.416 20.6624 28.4153C20.6717 28.4068 20.6787 28.3973 20.6787 28.3897C20.6461 28.3813 20.5733 28.4179 20.5431 28.4164C20.5184 28.4324 20.5594 28.4218 20.5486 28.4377C20.5346 28.4385 20.5191 28.4377 20.5043 28.4377C20.5098 28.4591 20.4432 28.5015 20.5145 28.4874C20.4951 28.4958 20.4742 28.5034 20.4548 28.5118C20.423 28.5362 20.3735 28.558 20.3394 28.558C20.324 28.5652 20.3038 28.5644 20.2906 28.5638C20.3867 28.5034 20.4742 28.4332 20.5524 28.3554C20.571 28.358 20.6082 28.3477 20.5834 28.3675C20.608 28.364 20.6359 28.3616 20.6644 28.3542L20.661 28.3527C20.6784 28.3412 20.6958 28.3277 20.7141 28.3162C20.7161 28.321 20.7239 28.3195 20.7335 28.3171L20.7416 28.3031L20.7435 28.3151L20.7453 28.3142L20.7398 28.2822L20.739 28.2877C20.7345 28.2968 20.7175 28.3113 20.7013 28.3171L20.6957 28.3182C20.6936 28.3189 20.6916 28.3194 20.6895 28.3195L20.6957 28.3182C20.7266 28.3075 20.7614 28.2351 20.8049 28.2519L20.7755 28.2943C20.825 28.2828 20.8948 28.2775 20.9389 28.234Z" fill="white"/>
<path d="M19.939 24.4454L19.9107 24.4786C19.9343 24.4801 19.9591 24.482 19.9832 24.4847C20.0033 24.4791 20.0118 24.4599 19.9599 24.4552C19.9909 24.4378 20.044 24.4838 20.044 24.4918C20.1458 24.4943 20.0118 24.4435 20.042 24.4481L20.0839 24.4576L20.0738 24.4603C20.1048 24.4811 20.1048 24.496 20.1659 24.5072C20.2062 24.5092 20.1907 24.4904 20.2062 24.4923C20.207 24.4904 20.2116 24.4904 20.2295 24.4975C20.2593 24.5036 20.2898 24.5106 20.3193 24.5185L20.2755 24.5359C20.3103 24.5596 20.3567 24.558 20.3109 24.5759C20.3479 24.5626 20.4284 24.5839 20.5028 24.6143C20.5795 24.6444 20.6477 24.6833 20.6678 24.6847C20.7081 24.7279 20.7542 24.754 20.8121 24.7869L20.8157 24.7889C20.798 24.7851 20.7724 24.8072 20.8227 24.8349C20.8416 24.769 20.9245 24.8642 20.9904 24.8616C20.9921 24.8615 20.9938 24.8614 20.9955 24.8612C20.9935 24.8612 20.9918 24.8613 20.9904 24.8616C20.9725 24.865 21.0044 24.8895 21.0295 24.9146C21.0582 24.9419 21.0814 24.969 21.0412 24.9654C21.0822 24.9917 21.0605 24.9474 21.0992 24.9606C21.1697 25.0558 21.3014 25.1268 21.385 25.2493C21.3796 25.2564 21.3548 25.2452 21.3633 25.278C21.3897 25.2883 21.4176 25.3014 21.4439 25.3136C21.457 25.3397 21.4184 25.3632 21.4725 25.3901C21.4625 25.3877 21.447 25.3844 21.4555 25.4018C21.5516 25.5083 21.6127 25.643 21.6616 25.7791C21.7095 25.9153 21.7491 26.0532 21.8118 26.1903C21.7901 26.1536 21.7917 26.18 21.7963 26.21C21.7885 26.1912 21.7746 26.2128 21.7622 26.2115C21.7793 26.2489 21.7955 26.2878 21.8095 26.3269C21.7801 26.3508 21.8172 26.4559 21.7847 26.4694L21.7901 26.4315C21.77 26.4597 21.7452 26.4353 21.7173 26.4109L21.7176 26.4149C21.7206 26.4518 21.7235 26.4882 21.7235 26.5267C21.7235 27.1393 21.4411 27.6871 20.9974 28.0508L20.9987 28.0514L20.9948 28.056L20.9951 28.0526C20.9807 28.0644 20.9661 28.076 20.9513 28.0874C20.9693 28.0847 20.9917 28.0726 21.0071 28.0527L21.0171 28.0363C21.0613 28.0172 21.0822 28.0852 21.0737 28.1386C21.0667 28.1336 21.0621 28.1271 21.0164 28.1485C21.0241 28.1302 21.0822 28.0615 21.0404 28.0737C20.9862 28.1065 21.0048 28.1118 20.9869 28.1394C20.9915 28.1084 20.9219 28.1469 20.8994 28.1271C20.8506 28.1619 20.801 28.1947 20.7499 28.2256L20.719 28.2454C20.722 28.2424 20.7251 28.2409 20.729 28.2386C20.6872 28.2622 20.6453 28.2836 20.6012 28.3046C21.0187 27.8531 21.1697 27.2203 21.1728 27.2106L21.1248 27.1959C20.7104 28.1909 19.5926 28.3401 18.9622 28.3401C18.9296 28.3401 18.8973 28.3394 18.8679 28.3386C18.866 28.3363 18.8649 28.3348 18.864 28.3317C18.8307 28.3164 18.7974 28.3019 18.7648 28.2847C18.7707 28.3027 18.7792 28.3195 18.7877 28.3355C18.7193 28.3327 18.6626 28.328 18.6178 28.3243L18.6049 28.3233C18.5897 28.313 18.5697 28.2981 18.5507 28.2802L18.5277 28.2943L18.523 28.2897C18.4954 28.2821 18.5107 28.2691 18.5325 28.2615C18.523 28.2508 18.5164 28.2397 18.5107 28.2294C18.4705 28.2492 18.4611 28.1786 18.4134 28.1935C18.41 28.1696 18.3287 28.1077 18.331 28.065C18.3054 28.0491 18.2811 28.0331 18.2697 28.0058L18.2392 28.0192C18.2326 27.9936 18.2268 27.9695 18.2211 27.9439C18.1811 27.9302 18.1621 27.9241 18.1716 27.9684C18.1325 27.8745 18.1278 27.9027 18.103 27.8195L18.0907 27.834C18.0724 27.8119 18.0649 27.76 18.0421 27.7562C18.0078 27.7425 17.9582 27.6776 17.9092 27.5997C17.8586 27.5222 17.8101 27.4293 17.7605 27.3589C17.8273 27.3663 17.7059 27.2978 17.7464 27.2743C17.7295 27.2701 17.7139 27.2514 17.7125 27.281C17.6943 27.1965 17.6482 27.1655 17.6677 27.0984C17.6511 27.0923 17.6534 27.1209 17.6429 27.1152C17.6433 27.1081 17.6472 27.0852 17.6368 27.0787C17.6267 27.073 17.6286 27.0942 17.6267 27.1091C17.6048 27.0228 17.6463 27.004 17.6834 26.99C17.6554 26.9514 17.6534 26.9289 17.673 26.8938C17.6577 26.8816 17.6397 26.8585 17.6443 26.912L17.6409 26.9001C17.6299 26.8601 17.6069 26.7581 17.6228 26.7317L17.6306 26.7257C17.6221 26.7168 17.6244 26.6849 17.6277 26.6765C17.6221 26.6099 17.6182 26.6032 17.6205 26.5375L17.6263 26.5563C17.6649 26.5299 17.6339 26.5019 17.6406 26.4492L17.6368 26.4508C17.6159 26.3277 17.6511 26.3996 17.6319 26.2775L17.6548 26.2869C17.7067 26.2822 17.6387 26.1781 17.6724 26.1124L17.6811 26.1395C17.7049 26.1067 17.6349 26.0212 17.6397 25.9809C17.6372 25.9716 17.6286 25.9922 17.6231 26.0025C17.6211 25.8951 17.6558 25.997 17.6844 25.9265C17.673 25.9086 17.6372 25.9317 17.6502 25.8819C17.6443 25.851 17.751 25.758 17.75 25.6829L17.7505 25.6843C17.7565 25.703 17.762 25.7202 17.7853 25.6928C17.8101 25.6468 17.8045 25.5404 17.8652 25.5172C17.8659 25.5092 17.8629 25.505 17.861 25.5031C17.89 25.4722 17.9458 25.398 17.9782 25.3901C17.9543 25.352 18.0003 25.3041 18.0449 25.2648C18.0897 25.2243 18.1344 25.1925 18.105 25.1677C18.1344 25.1365 18.164 25.1066 18.1954 25.0771L18.1877 25.0742C18.24 25.014 18.2748 25.0075 18.3066 25.0014L18.3087 25.001C18.3201 24.9851 18.304 24.9898 18.3011 24.9873C18.3801 24.8978 18.3935 24.8935 18.4954 24.8648L18.4897 24.8391C18.5182 24.8359 18.6115 24.7101 18.7316 24.6818C18.7296 24.6799 18.725 24.6767 18.7145 24.6782C18.7802 24.6602 18.844 24.6124 18.9058 24.5776C18.9649 24.5439 19.022 24.5223 19.0592 24.558C19.0888 24.5552 19.1192 24.5548 19.1479 24.5541C19.0439 24.5914 19.1744 24.5863 19.1355 24.6139C19.1773 24.6059 19.2354 24.5593 19.1831 24.5682L19.1763 24.574C19.145 24.5326 19.3049 24.5261 19.2964 24.4975C19.4818 24.4633 19.6677 24.4343 19.8489 24.4397C19.8791 24.4406 19.9091 24.4424 19.939 24.4454Z" fill="white"/>
<path d="M23.0859 18.4551C22.5352 18.898 22.3438 19.701 22.34 19.7128L22.388 19.7279C22.8024 18.732 23.92 18.5827 24.5513 18.5827C24.5791 18.5827 24.607 18.5831 24.6342 18.5837C24.6639 18.597 24.6933 18.6109 24.7223 18.6255C24.7191 18.6176 24.7188 18.6061 24.703 18.5929C24.6857 18.5878 24.6977 18.604 24.6937 18.6112C24.6869 18.5972 24.6676 18.5645 24.7017 18.5808L24.705 18.5889C24.727 18.6006 24.7575 18.6076 24.7719 18.6075L24.7753 18.6069L24.7673 18.6126C24.7589 18.6176 24.7505 18.6213 24.74 18.6237L24.7231 18.6259C24.9441 18.7373 25.1416 18.8871 25.3064 19.0675C25.3041 19.0614 25.2979 19.0577 25.2956 19.052L25.3049 19.0455C25.3234 19.0665 25.3289 19.0864 25.3072 19.069C25.3242 19.0877 25.3412 19.106 25.3576 19.1252C25.3405 19.0829 25.4094 19.0623 25.4636 19.0716L25.4629 19.0724C25.457 19.0791 25.452 19.0846 25.4722 19.1285C25.4536 19.1205 25.3854 19.0619 25.3978 19.1041C25.4288 19.1581 25.4349 19.1393 25.4621 19.1571C25.4311 19.1516 25.4683 19.2211 25.449 19.2436C25.483 19.2909 25.5163 19.3407 25.5465 19.3918L25.548 19.3928L25.5674 19.4224C25.5643 19.4199 25.5628 19.4172 25.5597 19.4138C25.5883 19.4636 25.6147 19.5147 25.6395 19.5674C25.6402 19.5617 25.6441 19.5579 25.6503 19.5617L25.6604 19.5945C25.6937 19.6151 25.6604 19.5232 25.6883 19.5588C25.682 19.5099 25.6805 19.4514 25.6364 19.3983L25.6063 19.4014C25.6154 19.4028 25.6403 19.4326 25.6418 19.4523C25.6395 19.4208 25.5566 19.3833 25.5736 19.3382L25.617 19.3674C25.6061 19.3195 25.6015 19.2501 25.5574 19.206C25.5984 19.2125 25.5636 19.2191 25.6178 19.236C25.5624 19.2278 25.692 19.358 25.6368 19.342C25.688 19.3611 25.6859 19.3984 25.7417 19.433C25.7316 19.4359 25.7146 19.4237 25.7432 19.4668C25.7401 19.4701 25.7394 19.4768 25.7394 19.4809L25.7414 19.4835L25.7394 19.4819C25.7389 19.4834 25.7387 19.4842 25.7386 19.4834C25.7293 19.4716 25.7208 19.4655 25.713 19.464C25.7037 19.497 25.7386 19.5682 25.7378 19.5983C25.7525 19.6237 25.744 19.5823 25.7595 19.5935C25.7595 19.6083 25.7595 19.6228 25.7588 19.6373C25.7812 19.6325 25.8223 19.6993 25.8091 19.6273C25.8168 19.6471 25.8254 19.6678 25.8331 19.6874C25.8578 19.7193 25.8787 19.7681 25.8787 19.8019C25.892 19.8296 25.8757 19.8817 25.885 19.8517C25.8888 19.8859 25.8928 19.9193 25.8958 19.9531H25.9012C25.9253 20.0507 25.9004 20.1576 25.9485 20.2665C25.9446 20.3013 25.9392 20.336 25.9462 20.3914L25.9655 20.4023C25.9594 20.445 25.9803 20.5328 25.9585 20.5501C25.9833 20.5754 25.9825 20.629 25.9717 20.6852C25.9609 20.7406 25.9423 20.7993 25.9384 20.8373L25.9137 20.8354C25.9036 20.8861 25.885 20.9339 25.8563 20.9927L25.8354 20.9827C25.8037 21.0293 25.8091 21.1226 25.7719 21.2029C25.7818 21.2007 25.7878 21.1824 25.7888 21.1667L25.7888 21.1635L25.7889 21.1621C25.7889 21.1636 25.7889 21.1651 25.7888 21.1667L25.789 21.1903C25.7852 21.2269 25.7669 21.2595 25.7448 21.29L25.7278 21.3127C25.6944 21.3564 25.6596 21.3957 25.651 21.4464C25.6317 21.4628 25.6256 21.4783 25.6216 21.4953L25.6233 21.4929L25.6256 21.4905C25.624 21.4934 25.6224 21.4962 25.6209 21.4995C25.6185 21.5103 25.6155 21.5216 25.6131 21.5338C25.6139 21.5224 25.6147 21.5121 25.6185 21.5037C25.6085 21.5187 25.5898 21.5413 25.5713 21.5599L25.5837 21.5825L25.5798 21.5877C25.5713 21.6153 25.5574 21.5994 25.5512 21.5779C25.5396 21.5867 25.5287 21.5937 25.5186 21.5979C25.5365 21.6388 25.4659 21.6464 25.4807 21.6943C25.4569 21.6973 25.3908 21.7776 25.3481 21.7736L25.3365 21.7913C25.3279 21.8034 25.3184 21.8146 25.3069 21.823L25.2878 21.8333L25.3002 21.8642C25.2747 21.8689 25.2499 21.8744 25.2243 21.8792C25.2088 21.9195 25.2034 21.9384 25.2491 21.9289C25.1538 21.966 25.1818 21.9706 25.0958 21.9947L25.1112 22.0069C25.088 22.0246 25.0345 22.0311 25.0307 22.0538C25.016 22.0876 24.9509 22.1353 24.8704 22.1828C24.7898 22.2301 24.6946 22.277 24.624 22.325C24.6318 22.2603 24.5614 22.3784 24.5373 22.3381C24.5334 22.3542 24.514 22.369 24.5435 22.371C24.4584 22.3879 24.425 22.433 24.3576 22.4128C24.3522 22.4282 24.3801 22.4273 24.3747 22.4372C24.3669 22.4362 24.3452 22.4324 24.3375 22.4433C24.3333 22.4489 24.3397 22.4504 24.3487 22.4512L24.3677 22.4526C24.2794 22.4733 24.2616 22.4324 24.2484 22.3963C24.2089 22.4227 24.1865 22.4244 24.1509 22.4038C24.1377 22.4193 24.1144 22.4366 24.1687 22.4324C24.1392 22.4414 23.9851 22.4761 23.9804 22.4437C23.9712 22.4526 23.9378 22.4494 23.9301 22.4462C23.8612 22.4507 23.8557 22.4536 23.7891 22.4507L23.807 22.4462C23.7813 22.4076 23.752 22.4372 23.6985 22.4298L23.7001 22.4339C23.5754 22.4526 23.6489 22.4189 23.5242 22.4362L23.5343 22.4132C23.5312 22.3626 23.4235 22.4282 23.3577 22.3935L23.3848 22.3851C23.3531 22.3616 23.2648 22.4291 23.2245 22.424C23.218 22.4248 23.2229 22.4286 23.2302 22.4326L23.2454 22.4404C23.1362 22.4404 23.2416 22.4086 23.1687 22.3794C23.1509 22.3906 23.175 22.4254 23.1223 22.4124C23.0921 22.4175 22.9991 22.3108 22.9232 22.3108C22.9433 22.3057 22.9619 22.3002 22.9341 22.2767C22.8868 22.2513 22.7784 22.2555 22.7559 22.1954C22.7489 22.195 22.7443 22.1963 22.742 22.1992C22.7118 22.17 22.6366 22.1137 22.6289 22.0809C22.5902 22.1044 22.5422 22.059 22.5034 22.0143C22.4632 21.9693 22.4307 21.9252 22.4058 21.9538C22.3748 21.9243 22.3438 21.8941 22.3144 21.8642L22.3121 21.8721C22.2507 21.8181 22.2448 21.7831 22.2395 21.7514L22.2393 21.7506C22.2238 21.7403 22.2269 21.7542 22.2254 21.758C22.1363 21.6792 22.1309 21.6651 22.1038 21.5647L22.0782 21.5699C22.0744 21.5422 21.9481 21.4483 21.921 21.33C21.9202 21.332 21.9163 21.3357 21.9171 21.3461C21.9001 21.2812 21.8529 21.2175 21.8187 21.1564C21.7847 21.0969 21.7653 21.0405 21.8009 21.0049C21.7986 20.9753 21.7986 20.9462 21.7986 20.9172V20.9171C21.8343 21.0203 21.8312 20.8917 21.8575 20.9307C21.8521 20.8888 21.8048 20.8312 21.8126 20.8833L21.8187 20.8898C21.7761 20.9199 21.7715 20.7621 21.7429 20.7706C21.7049 20.5566 21.6755 20.3418 21.6995 20.136L21.7328 20.1643C21.7343 20.1408 21.7374 20.117 21.7405 20.0939C21.7343 20.0737 21.7157 20.0639 21.7088 20.1154C21.6925 20.0855 21.7405 20.0328 21.7483 20.0328C21.7513 19.9325 21.6987 20.0639 21.7041 20.0343L21.7142 19.9935L21.7165 20.0032C21.7382 19.9733 21.7537 19.9733 21.7661 19.9137C21.7676 19.8742 21.7483 19.8884 21.7513 19.8739C21.7483 19.8729 21.7483 19.8678 21.7568 19.8504C21.763 19.8208 21.7708 19.7916 21.7793 19.7626L21.7955 19.8051C21.8206 19.7717 21.8203 19.7263 21.837 19.771C21.8246 19.7334 21.8475 19.6546 21.8792 19.5823C21.9109 19.5083 21.9504 19.4411 21.9535 19.4214C21.9985 19.3825 22.0248 19.3356 22.0611 19.2774C22.0565 19.2951 22.0782 19.3195 22.1068 19.2697C22.0387 19.2501 22.1441 19.1671 22.1363 19.1009L22.1373 19.1081C22.1416 19.1173 22.1588 19.1004 22.1787 19.081L22.1814 19.0783L22.1921 19.068C22.2192 19.0407 22.2471 19.0178 22.2432 19.0577C22.2711 19.0172 22.2254 19.0379 22.2385 19.0005C22.3361 18.9314 22.412 18.8033 22.5352 18.7226C22.543 18.7282 22.5321 18.7535 22.5639 18.7452C22.5763 18.7178 22.5886 18.6915 22.6026 18.6654C22.6289 18.6532 22.6522 18.6915 22.6792 18.6381C22.6777 18.6493 22.6745 18.6635 22.6916 18.6558C22.8016 18.562 22.9388 18.504 23.0774 18.4583C23.0804 18.457 23.0836 18.4561 23.0859 18.4551Z" fill="white"/>
<path d="M15.9586 18.2336C15.9595 18.2425 15.9586 18.2494 16.0056 18.2664C15.9872 18.2744 15.8966 18.2814 15.9357 18.3021C15.961 18.3084 15.9742 18.3094 15.9832 18.3078L15.9826 18.3031L15.9884 18.3065C15.9909 18.3057 15.9931 18.3047 15.9952 18.3036L15.9969 18.3013C16.0027 18.2995 16.0086 18.2961 16.019 18.2937C15.9935 18.312 16.0709 18.3345 16.0729 18.3631C16.1325 18.3719 16.1915 18.3828 16.25 18.3973L16.2853 18.4043C16.2819 18.4043 16.2787 18.4039 16.2748 18.4034C16.309 18.4126 16.3431 18.4223 16.3769 18.4328L16.3738 18.4309C16.362 18.4303 16.3691 18.4128 16.3672 18.4078L16.3636 18.4068C16.3594 18.3845 16.4006 18.429 16.4003 18.4402C16.4141 18.4447 16.4278 18.4494 16.4415 18.4542C16.4386 18.4494 16.4376 18.4448 16.4448 18.4429L16.4762 18.4583C16.5143 18.4494 16.4242 18.4085 16.4696 18.4137C16.4305 18.3841 16.3854 18.3442 16.3166 18.3387L16.2974 18.3635C16.3053 18.3568 16.3448 18.3598 16.359 18.3725C16.3358 18.3519 16.25 18.385 16.2295 18.3406L16.2804 18.331C16.2376 18.3049 16.1848 18.2608 16.1224 18.2603C16.1547 18.2358 16.1352 18.266 16.1853 18.239C16.1413 18.2721 16.3242 18.2713 16.2767 18.2986C16.3249 18.2765 16.3516 18.3033 16.4152 18.2889C16.4109 18.2979 16.3896 18.3011 16.4405 18.3114C16.4415 18.3152 16.4458 18.3198 16.4481 18.3232H16.452L16.449 18.3242C16.451 18.3265 16.451 18.3265 16.4477 18.3242C16.4343 18.3242 16.4238 18.3265 16.4181 18.3303C16.4357 18.3597 16.512 18.3847 16.5325 18.4062C16.5623 18.4127 16.5254 18.3912 16.5449 18.3875C16.5548 18.3973 16.5652 18.4082 16.5757 18.4184C16.5881 18.3998 16.6653 18.4165 16.6034 18.3763C16.6239 18.3841 16.6434 18.3931 16.6644 18.4015C16.7043 18.4062 16.7544 18.4249 16.7786 18.448C16.8086 18.4583 16.8348 18.5066 16.8197 18.4786L16.8608 18.5103L16.901 18.5414L16.9049 18.5377C16.993 18.5893 17.0539 18.6812 17.1663 18.7236C17.1881 18.7497 17.2096 18.7774 17.2547 18.8121L17.2762 18.806C17.3029 18.8398 17.3825 18.8858 17.3796 18.9131C17.4149 18.914 17.4524 18.9516 17.4863 18.9986C17.52 19.0455 17.5491 19.098 17.5748 19.1272L17.5553 19.1436C17.5862 19.1863 17.6077 19.2331 17.6306 19.2941L17.6091 19.3008C17.6205 19.3571 17.6916 19.418 17.7245 19.4997C17.7305 19.4909 17.7183 19.4716 17.7073 19.4594C17.7529 19.497 17.7658 19.5527 17.7739 19.6073C17.7826 19.6611 17.7868 19.7142 17.8172 19.755C17.8163 19.78 17.8224 19.7954 17.8325 19.8109C17.8316 19.8086 17.8316 19.8061 17.832 19.8048C17.8325 19.8067 17.8339 19.8096 17.8349 19.8138C17.8415 19.8225 17.8482 19.832 17.8544 19.8433L17.8537 19.8425L17.8439 19.8303L17.8358 19.8189C17.8397 19.8367 17.844 19.8639 17.844 19.892L17.8697 19.8981L17.8705 19.9042C17.8848 19.9286 17.8635 19.9276 17.843 19.9174C17.842 19.9315 17.8391 19.9446 17.8358 19.955C17.8776 19.9691 17.8349 20.0263 17.8792 20.0492C17.864 20.0681 17.8771 20.1702 17.8446 20.198L17.8492 20.218C17.852 20.2325 17.8534 20.2468 17.8516 20.2609L17.8463 20.2817L17.8767 20.2938C17.8629 20.3154 17.8502 20.337 17.8358 20.3582C17.8538 20.3965 17.8629 20.4148 17.8883 20.3759C17.8492 20.4694 17.872 20.4524 17.8296 20.5293L17.8492 20.5276C17.8463 20.5563 17.814 20.5979 17.8273 20.6167C17.8415 20.6509 17.8306 20.7303 17.8097 20.8204C17.7882 20.9104 17.7562 21.01 17.7411 21.0936C17.6997 21.0423 17.7357 21.1753 17.691 21.1638C17.6997 21.1775 17.6968 21.202 17.7191 21.1827C17.6714 21.255 17.6825 21.3089 17.6196 21.3432C17.6267 21.3582 17.6462 21.3358 17.6492 21.348L17.6488 21.3483C17.6423 21.3531 17.6248 21.3659 17.6277 21.3775C17.6306 21.3896 17.644 21.3722 17.6563 21.3634C17.6101 21.4393 17.5673 21.4243 17.531 21.4088C17.5235 21.4554 17.5092 21.4727 17.4691 21.4831C17.4716 21.5028 17.4678 21.5319 17.503 21.4905C17.4887 21.5169 17.4068 21.6501 17.3787 21.6313C17.3791 21.6436 17.3535 21.6651 17.3454 21.6683C17.302 21.7195 17.3 21.7262 17.2511 21.7712L17.2606 21.7552C17.2209 21.7485 17.216 21.7775 17.189 21.806L17.1734 21.8201L17.1773 21.8223C17.1039 21.9243 17.1306 21.8477 17.0563 21.9477L17.0462 21.9252C17.0073 21.8924 16.9806 22.0143 16.9095 22.0368L16.9228 22.0115C16.882 22.0181 16.87 22.1275 16.8377 22.1526C16.8318 22.1597 16.8533 22.1519 16.8657 22.1485C16.79 22.2256 16.838 22.1288 16.7672 22.1593C16.7633 22.1805 16.8044 22.1883 16.7591 22.2152C16.7414 22.2405 16.5995 22.2321 16.5463 22.2857C16.5561 22.2681 16.5652 22.2509 16.5286 22.2546C16.5097 22.2603 16.4872 22.2752 16.4634 22.2898L16.464 22.2891L16.5144 22.2491C17.0305 21.8172 17.221 21.0704 17.2341 21.0142L17.2348 21.011L17.1877 20.9963C16.7744 21.9918 15.6558 22.141 15.0253 22.141C14.9281 22.141 14.8423 22.1372 14.7724 22.133C14.7643 22.125 14.7562 22.1175 14.7476 22.1101C14.8491 22.1565 14.7529 22.0687 14.7995 22.0773C14.7653 22.0529 14.6899 22.0458 14.7333 22.0767H14.7428C14.7357 22.1279 14.6165 22.0204 14.6024 22.0471C14.4214 21.9243 14.2438 21.7966 14.1108 21.6361L14.1537 21.6319C14.1385 21.6146 14.1222 21.5966 14.1081 21.5779C14.0895 21.5676 14.0693 21.5745 14.1023 21.6146C14.0689 21.6056 14.0637 21.5361 14.0699 21.53C13.9985 21.4573 14.0579 21.5857 14.0393 21.5618L14.0171 21.5258L14.0256 21.5313C14.019 21.4944 14.0295 21.485 13.9946 21.4333C13.9681 21.4052 13.9646 21.4287 13.9557 21.4165C13.9532 21.4182 13.9495 21.414 13.9423 21.3966C13.9257 21.3714 13.9094 21.3455 13.8941 21.3194L13.9371 21.3375C13.93 21.2958 13.8959 21.2645 13.9417 21.2843C13.9058 21.2678 13.8633 21.1967 13.8327 21.1235C13.8008 21.0493 13.7804 20.9734 13.7671 20.9583C13.7697 20.9009 13.7559 20.8507 13.7387 20.7879L13.7371 20.782C13.7469 20.7969 13.7804 20.7994 13.7636 20.7444C13.7022 20.7782 13.7142 20.6467 13.6617 20.6059L13.6677 20.6102C13.6772 20.6136 13.6768 20.5901 13.6763 20.5628L13.6763 20.5586L13.6761 20.5296C13.6767 20.4971 13.6816 20.4733 13.7038 20.5003C13.6947 20.4524 13.6784 20.4994 13.6598 20.4637C13.6771 20.3459 13.6369 20.2046 13.6651 20.0595C13.6738 20.0582 13.6833 20.084 13.7009 20.055C13.6895 20.0286 13.6794 20.001 13.669 19.9732C13.6784 19.9456 13.7228 19.9559 13.7038 19.899C13.709 19.908 13.7185 19.9212 13.7247 19.9033C13.7328 19.7611 13.7867 19.6227 13.8494 19.4932C13.9127 19.3617 13.9841 19.2379 14.038 19.097L14.0356 19.1098C14.0331 19.13 14.0436 19.1195 14.0569 19.1029L14.0637 19.0942C14.0556 19.1121 14.0814 19.106 14.0885 19.1169C14.1032 19.0787 14.1195 19.0398 14.1366 19.0022C14.1761 19.0056 14.2246 18.906 14.2576 18.9182L14.2272 18.9427C14.2606 18.9358 14.2618 18.9687 14.2631 19.004L14.2632 19.0066C14.2895 18.9779 14.3137 18.9488 14.3418 18.9205C14.3706 18.8921 14.4001 18.8648 14.4303 18.8385C14.4236 18.8376 14.4185 18.8296 14.4158 18.8293C14.4318 18.8176 14.4393 18.8235 14.442 18.829C14.6702 18.6319 14.9332 18.4948 15.2099 18.4168L15.2055 18.4154L15.2113 18.4166C15.295 18.3929 15.3798 18.3748 15.4653 18.3621L15.4411 18.3513L15.4699 18.3616C15.518 18.3544 15.5664 18.3491 15.6149 18.3455C15.614 18.3331 15.6474 18.3205 15.6256 18.3131C15.6658 18.3131 15.7011 18.3268 15.732 18.3382C15.708 18.3339 15.6827 18.3349 15.6538 18.343C15.6804 18.3414 15.7072 18.3405 15.734 18.34L15.7488 18.3367C15.763 18.3218 15.7831 18.3058 15.7875 18.3167C15.7795 18.3226 15.7709 18.3282 15.762 18.3334C15.783 18.3278 15.8031 18.3218 15.8235 18.3131L15.8192 18.3169L15.8779 18.3269L15.9086 18.3323C15.8921 18.3078 15.9208 18.2604 15.9586 18.2336Z" fill="white"/>
<path d="M19.1336 11.9954C19.0983 12.0208 19.067 12.049 19.0344 12.0761C19.0193 12.078 19.004 12.0799 18.9887 12.0828C18.9965 12.085 19.0069 12.0883 19.0164 12.0915C18.5125 12.5427 18.3344 13.288 18.3325 13.2977L18.3801 13.3132C18.7935 12.3169 19.9127 12.168 20.5431 12.168C20.7011 12.168 20.829 12.1776 20.9079 12.186C20.9126 12.2076 20.9048 12.2272 20.8963 12.2451C20.9428 12.2531 20.9614 12.2677 20.973 12.307C20.9915 12.3043 21.021 12.3079 20.9792 12.2732C21.0063 12.2873 21.1411 12.368 21.1232 12.3953C21.1356 12.3953 21.1565 12.4207 21.1605 12.4285C21.2123 12.4713 21.2193 12.4732 21.265 12.5211L21.248 12.5127C21.2394 12.5577 21.2812 12.5558 21.3146 12.598L21.3161 12.5942C21.4191 12.6665 21.3424 12.6411 21.4439 12.7134L21.4199 12.7228C21.3881 12.7619 21.5105 12.788 21.5338 12.8581L21.5082 12.8449C21.5143 12.8852 21.626 12.8964 21.6514 12.9289C21.6592 12.934 21.6507 12.9129 21.6469 12.9021C21.7258 12.9762 21.6282 12.9285 21.6584 12.9983C21.6801 13.0025 21.6879 12.9617 21.7142 13.0057C21.7413 13.0237 21.732 13.163 21.7862 13.2161C21.7692 13.2063 21.7514 13.1973 21.7545 13.2331C21.77 13.2836 21.8521 13.3555 21.8241 13.4138C21.8296 13.4199 21.8335 13.4212 21.8374 13.4202C21.8397 13.4624 21.8536 13.5544 21.8358 13.5826C21.8799 13.592 21.8823 13.6578 21.8784 13.7177C21.8753 13.7769 21.8675 13.8309 21.9063 13.8276C21.9071 13.8698 21.9078 13.9122 21.9071 13.9543L21.9148 13.9505C21.9201 14.0312 21.9006 14.0597 21.8821 14.0866L21.8815 14.0876C21.8854 14.1064 21.8923 14.0933 21.8978 14.0919C21.904 14.2097 21.8985 14.2228 21.8466 14.3139L21.8698 14.328C21.8521 14.3509 21.8753 14.5043 21.811 14.6076C21.8149 14.6076 21.8203 14.6066 21.8249 14.5987C21.7924 14.657 21.7823 14.7352 21.763 14.8029C21.7452 14.8686 21.7204 14.9226 21.6685 14.9235C21.6491 14.946 21.629 14.967 21.6081 14.9886C21.6553 14.8892 21.567 14.9835 21.5756 14.938C21.5508 14.9712 21.543 15.0455 21.5748 15.0027V14.9934C21.6267 15.0008 21.5174 15.1172 21.5438 15.1319C21.4199 15.3107 21.2897 15.4853 21.1279 15.6172L21.1232 15.5735C21.1046 15.5885 21.0869 15.605 21.0683 15.6195C21.0582 15.6372 21.0652 15.657 21.1046 15.6246C21.0961 15.658 21.0249 15.6626 21.0202 15.657C20.9459 15.7265 21.0768 15.6683 21.0519 15.6861L21.0156 15.7092L21.021 15.7002C20.9839 15.7067 20.9738 15.6964 20.9219 15.7311C20.8925 15.7574 20.9165 15.7603 20.904 15.7696C20.9048 15.7715 20.9025 15.7752 20.8847 15.7828C20.8583 15.7986 20.8328 15.8147 20.8049 15.8297L20.8243 15.7874C20.7825 15.795 20.7499 15.8288 20.7716 15.7819C20.7561 15.817 20.6833 15.8598 20.6067 15.8903C20.5315 15.9221 20.4556 15.9423 20.4393 15.9546C20.3812 15.9523 20.3284 15.9664 20.2631 15.9838L20.2604 15.9845C20.2756 15.9742 20.2782 15.9423 20.2221 15.9584C20.2564 16.0167 20.1302 16.0076 20.0847 16.0548C20.0838 16.056 20.0827 16.0573 20.0812 16.0587C20.0823 16.0574 20.0834 16.0561 20.0847 16.0548C20.0943 16.0407 20.0553 16.0446 20.0192 16.0446L20.0045 16.0448C19.9713 16.0445 19.9469 16.0396 19.9754 16.0175C19.9258 16.0269 19.9734 16.0427 19.9374 16.0607C19.8182 16.0437 19.6745 16.0832 19.5278 16.0559C19.5258 16.0469 19.5526 16.0372 19.5231 16.0202C19.497 16.0312 19.469 16.0413 19.4421 16.051L19.4403 16.0517C19.4116 16.0418 19.423 15.9986 19.3649 16.0175L19.366 16.0167C19.3753 16.0102 19.3861 16.0026 19.3688 15.9967C19.224 15.9887 19.0849 15.9359 18.9525 15.8739C18.8192 15.8118 18.6934 15.741 18.5507 15.688C18.5913 15.6971 18.5728 15.6824 18.5499 15.6642L18.5478 15.6626C18.5668 15.671 18.5602 15.6458 18.5707 15.6382C18.5315 15.6233 18.4924 15.6082 18.4545 15.5903C18.4581 15.5519 18.3573 15.5041 18.3697 15.4722L18.3945 15.5021C18.387 15.4691 18.4196 15.4674 18.4553 15.4656L18.4591 15.4655C18.4297 15.4401 18.4001 15.4158 18.3726 15.3886C18.247 15.265 18.1415 15.1292 18.0561 14.985C18.0678 15.0228 18.0751 15.0772 18.0929 15.1068L18.1011 15.1107L18.0936 15.1542C18.0704 15.0845 18.0527 14.9854 18.0307 14.9426L18.033 14.9435C18.0045 14.8943 17.9788 14.8432 17.9554 14.7913C17.9529 14.8039 17.941 14.7814 17.9297 14.724L17.9323 14.7379C17.8932 14.6439 17.8618 14.5475 17.838 14.4497C17.7821 14.2186 17.7683 13.9804 17.7967 13.746C17.7843 13.7647 17.7758 13.7975 17.7882 13.829C17.771 13.8723 17.7067 13.8398 17.6749 13.7958L17.6754 13.7957C17.6837 13.7948 17.6909 13.7941 17.7082 13.7489C17.7164 13.7671 17.7226 13.8557 17.7438 13.8177C17.7597 13.7566 17.7425 13.7671 17.735 13.7347C17.7543 13.7605 17.7764 13.684 17.8058 13.6826C17.8149 13.6239 17.8273 13.5658 17.8411 13.508L17.8479 13.474L17.8475 13.4791L17.8472 13.4849C17.8616 13.4286 17.8792 13.3743 17.8987 13.3189C17.8935 13.3222 17.889 13.3235 17.8873 13.3161L17.9024 13.2846C17.8935 13.2475 17.8521 13.3357 17.8573 13.2912C17.8273 13.3302 17.7868 13.3743 17.7811 13.4418L17.8056 13.4612C17.7991 13.4532 17.8025 13.4145 17.8159 13.4006C17.7944 13.424 17.8287 13.508 17.7834 13.5283L17.7739 13.4775C17.7474 13.5202 17.7015 13.5723 17.7005 13.6344C17.6759 13.6019 17.7067 13.6212 17.6802 13.5723C17.7135 13.6157 17.7126 13.4338 17.7406 13.4823C17.7179 13.4341 17.7457 13.4081 17.7305 13.3456C17.7402 13.3498 17.7425 13.3704 17.7536 13.3202C17.7568 13.3189 17.7624 13.3151 17.7657 13.3122C17.7681 13.3103 17.7677 13.311 17.7657 13.3132C17.7667 13.3263 17.7686 13.3376 17.7725 13.3424C17.8025 13.3254 17.8287 13.2504 17.8502 13.2292C17.8564 13.2006 17.8349 13.2372 17.8306 13.2176C17.8411 13.2073 17.8515 13.1973 17.8625 13.1874C17.843 13.1752 17.86 13.0987 17.8192 13.1598C17.8273 13.1395 17.8362 13.1199 17.845 13.1002C17.8492 13.0604 17.8688 13.0109 17.8925 12.9871C17.9025 12.9575 17.9526 12.9311 17.9235 12.9463C17.9433 12.9197 17.9646 12.8943 17.986 12.8686L17.9878 12.8665L17.983 12.8627C18.0355 12.7758 18.1288 12.7163 18.1716 12.6047C18.1983 12.5829 18.2268 12.5613 18.261 12.5182L18.2554 12.4967C18.2897 12.4703 18.3364 12.3925 18.3649 12.3953C18.3649 12.36 18.4039 12.3224 18.4515 12.2892C18.4972 12.2564 18.5524 12.2278 18.5811 12.2028L18.5981 12.2217C18.6421 12.1912 18.6878 12.17 18.7498 12.1474L18.7583 12.169C18.8144 12.1578 18.8764 12.0873 18.9592 12.0551C18.9505 12.0494 18.9306 12.0607 18.9192 12.0715C18.9564 12.0274 19.0135 12.0143 19.0687 12.0057C19.0908 12.003 19.1126 11.9992 19.1336 11.9954Z" fill="white"/>
<path d="M19.3623 12.1898V12.0642H19.2091V12.1828V12.1898H19.3623Z" fill="white"/>
</svg>
