<svg width="40" height="40" viewBox="0 0 40 40" fill="none" xmlns="http://www.w3.org/2000/svg">
<rect width="40" height="40" rx="3" fill="#002D72"/>
<path fill-rule="evenodd" clip-rule="evenodd" d="M22.3649 20.3632C21.9636 21.9767 21.2093 26.1455 20.9756 28.8975C20.8548 28.9528 20.5018 29 20.3294 29C19.7798 29 19.1303 28.6584 19.0884 27.7687C19.0352 26.6708 19.6734 22.6257 20.6243 18.8717C20.6549 18.7529 20.6839 18.6391 20.7145 18.522C19.4816 18.9465 18.3358 19.4003 17.3011 19.8476C16.9143 21.5489 16.4034 24.1595 16.2132 26.7408C16.1746 26.7831 15.8168 26.8351 15.6363 26.8351C14.9787 26.8351 14.521 26.3943 14.5226 25.6412C14.5291 24.1692 14.8546 22.2386 15.1318 20.8463C13.741 21.5278 12.6999 22.1214 12.1181 22.4728C12.0149 22.2743 11.9827 21.9507 12.0085 21.7961C12.0391 21.5733 12.1696 21.087 12.7031 20.7161C13.5605 20.1176 14.5033 19.5337 15.5444 18.9741C16.0811 16.7832 16.7983 14.5614 17.4042 13.2423C17.7926 12.3949 18.289 12.0696 19.1448 12.0696C19.3688 12.0696 19.6799 12.1216 19.841 12.1736C19.0691 13.8652 18.3438 15.8821 17.7878 17.8811C18.845 17.4143 19.9925 16.9735 21.2416 16.5636C21.8459 14.4296 22.3939 12.9023 22.9015 11.9297C23.2174 11.323 23.7477 11.079 24.2215 11.0204C24.6405 10.9684 25.0112 11.0221 25.34 11.1099C24.547 13.0146 24.0281 14.4199 23.5817 15.8658C24.4374 15.6365 25.3367 15.4186 26.2828 15.2185C26.7969 15.1095 28.6599 14.7761 29 16.5929C26.9129 16.8288 24.8984 17.263 23.0256 17.7949C22.8177 18.5659 22.6066 19.4003 22.3649 20.3632Z" fill="white"/>
</svg>
