<svg width="40" height="40" viewBox="0 0 40 40" fill="none" xmlns="http://www.w3.org/2000/svg">
<rect width="40" height="40" rx="3" fill="#D31245"/>
<path fill-rule="evenodd" clip-rule="evenodd" d="M27.8411 9.45971V12.0777L21.2543 12.5101V10.2311C21.2572 9.9422 21.4718 9.69882 21.7592 9.65839L27.3362 9.0039C27.4664 8.98662 27.5976 9.02732 27.6949 9.11515C27.7922 9.20299 27.8457 9.32904 27.8411 9.45971ZM27.8411 15.5018V12.989L23.0742 13.2578V18.2366H24.3892V15.5719L27.8411 15.5018ZM24.4478 24.1974L27.841 24.4546L27.8644 26.9557L23.0976 26.5817V21.4743H24.4478V24.1974ZM25.0467 18.2371H27.8411V16.1333L25.0232 16.2035L25.0467 18.2371ZM24.3774 20.8901L22.3932 20.8317V26.5351L21.2191 26.4416V13.3635L22.3932 13.2933V18.8682H24.3774V20.8901ZM24.9997 18.8678V20.9014L27.7823 20.9715V18.8678H24.9997ZM24.9997 23.6481V21.5327L27.7706 21.6145V23.8117L24.9997 23.6481ZM21.2191 27.353V29.8775C21.222 30.1663 21.4366 30.4097 21.724 30.4502L27.301 31.1046C27.4312 31.1219 27.5624 31.0812 27.6597 30.9934C27.757 30.9056 27.8105 30.7795 27.8058 30.6488V27.8789L21.2191 27.353ZM13.0003 12.989V15.5018L16.4522 15.5719V18.2366H17.6968V13.2578L13.0003 12.989ZM17.6968 26.5933L13.0003 27.0141V24.4545L16.3465 24.2091V21.4859H17.6968V26.5933ZM15.8064 16.2502L13.0003 16.1333V18.2371H15.7947L15.8064 16.2502ZM19.5283 26.4416L18.3542 26.5351L18.3659 20.8317L16.3817 20.8901V18.8682H18.3542V13.2933L19.5283 13.3635V26.4416ZM13.0003 18.8678V20.9715L15.783 20.9014V18.8678H13.0003ZM13.0003 23.8117V21.6145L15.7595 21.5327V23.6481L13.0003 23.8117ZM13.0003 27.8789V30.6488C12.9957 30.7795 13.0491 30.9056 13.1464 30.9934C13.2437 31.0812 13.3749 31.1219 13.5051 31.1046L19.0822 30.4502C19.3671 30.4052 19.5793 30.1645 19.587 29.8775V27.353L13.0003 27.8789ZM19.5401 10.2308V12.5098L13.0003 12.0774V9.45942C12.997 9.33756 13.0442 9.21973 13.1308 9.13353C13.2174 9.04734 13.3358 9.00036 13.4582 9.00361L19.0352 9.6581C19.3201 9.70304 19.5323 9.94376 19.5401 10.2308Z" fill="white"/>
</svg>
