<svg width="40" height="40" viewBox="0 0 40 40" fill="none" xmlns="http://www.w3.org/2000/svg">
<rect width="40" height="40" rx="3" fill="#A66659"/>
<path fill-rule="evenodd" clip-rule="evenodd" d="M29.8083 17.314C28.8861 16.7648 27.777 16.3812 26.5545 16.3812C25.2174 16.3812 24.2536 16.8892 24.2536 17.7386C24.2536 18.5471 25.1552 18.8166 26.6372 19.0239L27.3317 19.1275C29.3109 19.4176 31.0003 20.2676 31.0003 22.195C31.0003 24.6099 28.8031 25.7706 26.3365 25.7706C24.6678 25.7706 22.792 25.2836 21.5801 24.3404L22.7092 22.6097C23.5279 23.2418 24.9167 23.791 26.3365 23.791C27.6734 23.791 28.7202 23.304 28.7202 22.4024C28.7202 21.6459 27.7876 21.335 26.2436 21.1277L25.4871 21.0241C23.5487 20.7546 21.9841 19.8946 21.9841 17.9256C21.9841 15.6973 23.9943 14.3916 26.5545 14.3916C28.3573 14.3916 29.6322 14.8474 30.8445 15.5727L29.8083 17.314Z" fill="white"/>
<path fill-rule="evenodd" clip-rule="evenodd" d="M13.2116 14.3916L8.72461 25.3772H10.9629L11.9785 22.7962H16.9947L18.0204 25.3772H20.3209L15.8439 14.3916H13.2116ZM14.4863 16.4642L16.2174 20.817H12.7658L14.4863 16.4642Z" fill="white"/>
</svg>
